<?xml version="1.0" encoding="UTF-8"?> <svg xmlns="http://www.w3.org/2000/svg" width="277" height="160" viewBox="0 0 277 160" fill="none"><circle cx="80" cy="80" r="77.5" fill="#FF4081" fill-opacity="0.3" stroke="#0D77F3" stroke-width="5"></circle><path d="M162.51 22.18C161.19 22.18 160.056 21.916 159.108 21.388C158.172 20.848 157.452 20.092 156.948 19.12C156.444 18.136 156.192 16.978 156.192 15.646C156.192 14.314 156.444 13.162 156.948 12.19C157.452 11.218 158.172 10.468 159.108 9.94C160.056 9.4 161.19 9.13 162.51 9.13C163.362 9.13 164.166 9.262 164.922 9.526C165.69 9.79 166.32 10.168 166.812 10.66L166.056 12.496C165.516 12.04 164.964 11.71 164.4 11.506C163.836 11.29 163.23 11.182 162.582 11.182C161.298 11.182 160.32 11.572 159.648 12.352C158.976 13.12 158.64 14.218 158.64 15.646C158.64 17.074 158.976 18.178 159.648 18.958C160.32 19.738 161.298 20.128 162.582 20.128C163.23 20.128 163.836 20.026 164.4 19.822C164.964 19.606 165.516 19.27 166.056 18.814L166.812 20.65C166.32 21.13 165.69 21.508 164.922 21.784C164.166 22.048 163.362 22.18 162.51 22.18ZM168.613 11.308V9.112H171.133V11.308H168.613ZM168.757 22V13.198H171.007V22H168.757ZM173.495 22V13.198H175.691V14.746C176.123 13.702 177.047 13.126 178.463 13.018L179.147 12.964L179.291 14.872L177.995 14.998C176.519 15.142 175.781 15.898 175.781 17.266V22H173.495ZM184.621 22.18C183.697 22.18 182.893 21.994 182.209 21.622C181.525 21.238 180.997 20.698 180.625 20.002C180.253 19.306 180.067 18.49 180.067 17.554C180.067 16.618 180.253 15.814 180.625 15.142C180.997 14.458 181.525 13.936 182.209 13.576C182.893 13.204 183.697 13.018 184.621 13.018C185.185 13.018 185.743 13.108 186.295 13.288C186.847 13.468 187.303 13.72 187.663 14.044L186.997 15.61C186.685 15.334 186.331 15.124 185.935 14.98C185.551 14.836 185.179 14.764 184.819 14.764C184.039 14.764 183.433 15.01 183.001 15.502C182.581 15.982 182.371 16.672 182.371 17.572C182.371 18.46 182.581 19.162 183.001 19.678C183.433 20.182 184.039 20.434 184.819 20.434C185.167 20.434 185.539 20.362 185.935 20.218C186.331 20.074 186.685 19.858 186.997 19.57L187.663 21.154C187.303 21.466 186.841 21.718 186.277 21.91C185.725 22.09 185.173 22.18 184.621 22.18ZM192.379 22.18C190.219 22.18 189.139 20.968 189.139 18.544V13.198H191.389V18.58C191.389 19.204 191.515 19.666 191.767 19.966C192.019 20.266 192.421 20.416 192.973 20.416C193.573 20.416 194.065 20.212 194.449 19.804C194.833 19.384 195.025 18.832 195.025 18.148V13.198H197.275V22H195.079V20.686C194.491 21.682 193.591 22.18 192.379 22.18ZM199.803 22V13.198H201.999V14.548C202.263 14.068 202.629 13.696 203.097 13.432C203.565 13.156 204.105 13.018 204.717 13.018C206.037 13.018 206.901 13.594 207.309 14.746C207.585 14.206 207.981 13.786 208.497 13.486C209.013 13.174 209.601 13.018 210.261 13.018C212.241 13.018 213.231 14.224 213.231 16.636V22H210.981V16.726C210.981 16.054 210.867 15.562 210.639 15.25C210.423 14.938 210.051 14.782 209.523 14.782C208.935 14.782 208.473 14.992 208.137 15.412C207.801 15.82 207.633 16.39 207.633 17.122V22H205.383V16.726C205.383 16.054 205.269 15.562 205.041 15.25C204.825 14.938 204.459 14.782 203.943 14.782C203.355 14.782 202.893 14.992 202.557 15.412C202.221 15.82 202.053 16.39 202.053 17.122V22H199.803ZM216.296 22V14.89H214.604V13.198H216.296V13.18C216.296 11.932 216.62 10.99 217.268 10.354C217.928 9.718 218.948 9.358 220.328 9.274L221.21 9.22L221.354 10.876L220.526 10.93C219.806 10.978 219.296 11.158 218.996 11.47C218.696 11.77 218.546 12.22 218.546 12.82V13.198H220.94V14.89H218.546V22H216.296ZM226.518 22.18C225.522 22.18 224.664 21.994 223.944 21.622C223.224 21.25 222.666 20.722 222.27 20.038C221.886 19.354 221.694 18.544 221.694 17.608C221.694 16.696 221.88 15.898 222.252 15.214C222.636 14.53 223.158 13.996 223.818 13.612C224.49 13.216 225.252 13.018 226.104 13.018C227.352 13.018 228.336 13.414 229.056 14.206C229.788 14.998 230.154 16.078 230.154 17.446V18.112H223.854C224.022 19.684 224.922 20.47 226.554 20.47C227.046 20.47 227.538 20.398 228.03 20.254C228.522 20.098 228.972 19.858 229.38 19.534L230.01 21.046C229.59 21.394 229.062 21.67 228.426 21.874C227.79 22.078 227.154 22.18 226.518 22.18ZM226.194 14.548C225.534 14.548 225 14.752 224.592 15.16C224.184 15.568 223.938 16.12 223.854 16.816H228.282C228.234 16.084 228.03 15.526 227.67 15.142C227.322 14.746 226.83 14.548 226.194 14.548ZM232.086 22V13.198H234.282V14.746C234.714 13.702 235.638 13.126 237.054 13.018L237.738 12.964L237.882 14.872L236.586 14.998C235.11 15.142 234.372 15.898 234.372 17.266V22H232.086ZM243.482 22.18C242.486 22.18 241.628 21.994 240.908 21.622C240.188 21.25 239.63 20.722 239.234 20.038C238.85 19.354 238.658 18.544 238.658 17.608C238.658 16.696 238.844 15.898 239.216 15.214C239.6 14.53 240.122 13.996 240.782 13.612C241.454 13.216 242.216 13.018 243.068 13.018C244.316 13.018 245.3 13.414 246.02 14.206C246.752 14.998 247.118 16.078 247.118 17.446V18.112H240.818C240.986 19.684 241.886 20.47 243.518 20.47C244.01 20.47 244.502 20.398 244.994 20.254C245.486 20.098 245.936 19.858 246.344 19.534L246.974 21.046C246.554 21.394 246.026 21.67 245.39 21.874C244.754 22.078 244.118 22.18 243.482 22.18ZM243.158 14.548C242.498 14.548 241.964 14.752 241.556 15.16C241.148 15.568 240.902 16.12 240.818 16.816H245.246C245.198 16.084 244.994 15.526 244.634 15.142C244.286 14.746 243.794 14.548 243.158 14.548ZM249.05 22V13.198H251.246V14.566C251.546 14.062 251.948 13.678 252.452 13.414C252.968 13.15 253.544 13.018 254.18 13.018C256.256 13.018 257.294 14.224 257.294 16.636V22H255.044V16.744C255.044 16.06 254.912 15.562 254.648 15.25C254.396 14.938 254 14.782 253.46 14.782C252.8 14.782 252.272 14.992 251.876 15.412C251.492 15.82 251.3 16.366 251.3 17.05V22H249.05ZM263.798 22.18C262.874 22.18 262.07 21.994 261.386 21.622C260.702 21.238 260.174 20.698 259.802 20.002C259.43 19.306 259.244 18.49 259.244 17.554C259.244 16.618 259.43 15.814 259.802 15.142C260.174 14.458 260.702 13.936 261.386 13.576C262.07 13.204 262.874 13.018 263.798 13.018C264.362 13.018 264.92 13.108 265.472 13.288C266.024 13.468 266.48 13.72 266.84 14.044L266.174 15.61C265.862 15.334 265.508 15.124 265.112 14.98C264.728 14.836 264.356 14.764 263.996 14.764C263.216 14.764 262.61 15.01 262.178 15.502C261.758 15.982 261.548 16.672 261.548 17.572C261.548 18.46 261.758 19.162 262.178 19.678C262.61 20.182 263.216 20.434 263.996 20.434C264.344 20.434 264.716 20.362 265.112 20.218C265.508 20.074 265.862 19.858 266.174 19.57L266.84 21.154C266.48 21.466 266.018 21.718 265.454 21.91C264.902 22.09 264.35 22.18 263.798 22.18ZM272.532 22.18C271.536 22.18 270.678 21.994 269.958 21.622C269.238 21.25 268.68 20.722 268.284 20.038C267.9 19.354 267.708 18.544 267.708 17.608C267.708 16.696 267.894 15.898 268.266 15.214C268.65 14.53 269.172 13.996 269.832 13.612C270.504 13.216 271.266 13.018 272.118 13.018C273.366 13.018 274.35 13.414 275.07 14.206C275.802 14.998 276.168 16.078 276.168 17.446V18.112H269.868C270.036 19.684 270.936 20.47 272.568 20.47C273.06 20.47 273.552 20.398 274.044 20.254C274.536 20.098 274.986 19.858 275.394 19.534L276.024 21.046C275.604 21.394 275.076 21.67 274.44 21.874C273.804 22.078 273.168 22.18 272.532 22.18ZM272.208 14.548C271.548 14.548 271.014 14.752 270.606 15.16C270.198 15.568 269.952 16.12 269.868 16.816H274.296C274.248 16.084 274.044 15.526 273.684 15.142C273.336 14.746 272.844 14.548 272.208 14.548Z" fill="#0D77F3"></path><path fill-rule="evenodd" clip-rule="evenodd" d="M182.007 45.4326C181.278 45.8472 180.479 46.0847 179.676 46.2946C178.314 46.6509 176.914 46.7017 175.515 46.7151C175.031 46.7193 174.562 46.6086 174.142 46.3388C173.276 45.7833 173.108 44.7036 173.796 43.9686C174.187 43.5521 174.63 43.1926 175.178 42.9943C175.63 42.8305 176.08 42.6584 176.542 42.5276C178.71 41.9133 180.596 42.4672 182.239 43.9532C182.43 44.1255 182.575 44.3516 182.728 44.5626C182.856 44.7388 182.784 45.0004 182.582 45.12C182.394 45.2307 182.199 45.3289 182.007 45.4326ZM167.183 55.8507C168.132 55.3803 169.278 54.5728 170.464 53.8313C170.575 53.7621 170.677 53.6782 170.778 53.5961C170.943 53.4624 170.989 53.1776 170.878 53.0039C170.533 52.4622 169.93 52.2405 169.416 52.5154C168.877 52.8037 168.357 53.1298 167.841 53.4594C165.848 54.7327 163.794 55.8911 161.617 56.8247C160.867 57.1462 160.793 57.4603 161.293 58.1092C161.966 58.9821 162.756 59.7415 163.67 60.3471C165.092 61.2882 166.544 62.1819 167.991 63.0838C168.171 63.195 168.393 63.2525 168.604 63.2936C168.779 63.3277 168.948 63.2593 169.051 63.0923C169.151 62.9305 169.165 62.7437 169.067 62.5976C168.948 62.4209 168.798 62.2468 168.622 62.1297C168.113 61.7903 167.577 61.4907 167.064 61.1572C166.001 60.4672 164.945 59.7667 163.891 59.0628C163.839 59.0283 163.835 58.9214 163.808 58.8486C163.887 58.8345 163.973 58.7927 164.044 58.8107C165.669 59.2196 167.321 59.3288 168.991 59.2931C171.111 59.2477 173.152 58.8082 175.14 58.0896C176.085 57.7479 177.039 57.4284 177.973 57.0568C179.647 56.3902 181.225 55.5449 182.609 54.3767C183.449 53.6679 184.165 52.8462 184.732 51.8988C185.733 50.2289 185.963 48.4661 185.387 46.6028C185.335 46.4358 185.259 46.2744 185.225 46.1044C185.178 45.8777 185.235 45.6608 185.424 45.5177C185.877 45.1758 186.349 44.8575 186.799 44.5123C189.147 42.715 190.406 40.2815 190.884 37.4141C191.286 35 191.102 32.6206 190.335 30.2923C190.198 29.8778 190.063 29.4602 189.886 29.0625C189.694 28.632 189.329 28.4061 188.86 28.3477C188.534 28.3078 188.241 28.6116 188.334 28.9143C188.502 29.4568 188.704 29.9893 188.857 30.5359C189.54 32.9848 189.641 35.4473 188.988 37.9213C188.752 38.8134 188.413 39.6647 187.974 40.4765C187.162 41.9784 185.95 43.0921 184.539 44.0108C184.325 44.1498 184.137 44.1189 183.952 43.9376C183.733 43.7237 183.526 43.4979 183.305 43.2859C180.9 40.9711 178.099 40.4147 174.944 41.3961C174.18 41.6341 173.469 41.9573 172.898 42.5251C172.622 42.7998 172.349 43.0953 172.148 43.4259C171.59 44.3447 171.674 45.4099 172.351 46.2436C173.003 47.0482 173.845 47.579 174.837 47.8692C175.557 48.0797 176.295 48.1612 177.042 48.1479C178.941 48.1141 180.777 47.7708 182.531 47.0239C182.851 46.8878 183.184 46.7823 183.515 46.6738C183.672 46.6226 183.866 46.7679 183.896 46.9402C183.911 47.0264 183.929 47.1116 183.942 47.1981C184.173 48.7992 183.748 50.2293 182.811 51.5252C181.924 52.7516 180.751 53.6559 179.492 54.4603C178.304 55.2184 177.001 55.7309 175.688 56.218C174.746 56.5675 173.789 56.8779 172.843 57.2162C172.096 57.4833 171.327 57.6649 170.539 57.6931C169.011 57.7472 167.481 57.772 165.951 57.7697C165.478 57.7689 165.005 57.642 164.532 57.567C164.505 57.5625 164.476 57.5053 164.466 57.4678C164.458 57.4347 164.461 57.3759 164.482 57.361C164.624 57.2606 164.766 57.1588 164.918 57.0757C165.57 56.7188 166.226 56.3675 167.183 55.8507Z" fill="#0D77F3"></path></svg> 