<?xml version="1.0" encoding="UTF-8"?> <svg xmlns="http://www.w3.org/2000/svg" width="330" height="130" viewBox="0 0 330 130" fill="none"><line x1="2" y1="64" x2="65" y2="64" stroke="#FF4081" stroke-width="2"></line><circle cx="65" cy="65" r="63.5" fill="#FF4081" fill-opacity="0.3" stroke="#FF4081" stroke-width="3"></circle><circle cx="64.5" cy="64.5" r="3.75" stroke="#FF4081" stroke-width="1.5"></circle><path d="M13.5958 57V48.198H15.7918V49.746C16.2238 48.702 17.1478 48.126 18.5638 48.018L19.2478 47.964L19.3918 49.872L18.0958 49.998C16.6198 50.142 15.8818 50.898 15.8818 52.266V57H13.5958ZM23.6047 57.18C22.9687 57.18 22.3987 57.06 21.8947 56.82C21.4027 56.568 21.0127 56.232 20.7247 55.812C20.4487 55.392 20.3107 54.918 20.3107 54.39C20.3107 53.742 20.4787 53.232 20.8147 52.86C21.1507 52.476 21.6967 52.2 22.4527 52.032C23.2087 51.864 24.2227 51.78 25.4947 51.78H26.1247V51.402C26.1247 50.802 25.9927 50.37 25.7287 50.106C25.4647 49.842 25.0207 49.71 24.3967 49.71C23.9047 49.71 23.4007 49.788 22.8847 49.944C22.3687 50.088 21.8467 50.316 21.3187 50.628L20.6707 49.098C20.9827 48.882 21.3487 48.696 21.7687 48.54C22.2007 48.372 22.6507 48.246 23.1187 48.162C23.5987 48.066 24.0487 48.018 24.4687 48.018C25.7527 48.018 26.7067 48.318 27.3307 48.918C27.9547 49.506 28.2667 50.424 28.2667 51.672V57H26.1607V55.596C25.9567 56.088 25.6327 56.478 25.1887 56.766C24.7447 57.042 24.2167 57.18 23.6047 57.18ZM24.0727 55.632C24.6607 55.632 25.1467 55.428 25.5307 55.02C25.9267 54.612 26.1247 54.096 26.1247 53.472V53.076H25.5127C24.3847 53.076 23.5987 53.166 23.1547 53.346C22.7227 53.514 22.5067 53.826 22.5067 54.282C22.5067 54.678 22.6447 55.002 22.9207 55.254C23.1967 55.506 23.5807 55.632 24.0727 55.632ZM34.0845 57.18C33.3165 57.18 32.6385 56.994 32.0505 56.622C31.4745 56.25 31.0245 55.722 30.7005 55.038C30.3765 54.342 30.2145 53.526 30.2145 52.59C30.2145 51.642 30.3765 50.832 30.7005 50.16C31.0245 49.476 31.4745 48.948 32.0505 48.576C32.6385 48.204 33.3165 48.018 34.0845 48.018C34.7085 48.018 35.2725 48.156 35.7765 48.432C36.2805 48.708 36.6585 49.074 36.9105 49.53V44.31H39.1605V57H36.9645V55.542C36.7245 56.046 36.3465 56.448 35.8305 56.748C35.3145 57.036 34.7325 57.18 34.0845 57.18ZM34.7145 55.47C35.3865 55.47 35.9265 55.23 36.3345 54.75C36.7425 54.258 36.9465 53.538 36.9465 52.59C36.9465 51.63 36.7425 50.916 36.3345 50.448C35.9265 49.968 35.3865 49.728 34.7145 49.728C34.0425 49.728 33.5025 49.968 33.0945 50.448C32.6865 50.916 32.4825 51.63 32.4825 52.59C32.4825 53.538 32.6865 54.258 33.0945 54.75C33.5025 55.23 34.0425 55.47 34.7145 55.47ZM41.4994 46.308V44.112H44.0194V46.308H41.4994ZM41.6434 57V48.198H43.8934V57H41.6434ZM49.5673 57.18C47.4073 57.18 46.3273 55.968 46.3273 53.544V48.198H48.5773V53.58C48.5773 54.204 48.7033 54.666 48.9553 54.966C49.2073 55.266 49.6093 55.416 50.1613 55.416C50.7613 55.416 51.2533 55.212 51.6373 54.804C52.0213 54.384 52.2133 53.832 52.2133 53.148V48.198H54.4633V57H52.2673V55.686C51.6793 56.682 50.7793 57.18 49.5673 57.18ZM60.1772 57.18C59.4332 57.18 58.7372 57.09 58.0892 56.91C57.4412 56.73 56.9012 56.472 56.4692 56.136L57.0452 54.66C57.4892 54.96 57.9872 55.194 58.5392 55.362C59.0912 55.518 59.6432 55.596 60.1952 55.596C60.7712 55.596 61.1972 55.5 61.4732 55.308C61.7612 55.104 61.9052 54.84 61.9052 54.516C61.9052 54.012 61.5332 53.688 60.7892 53.544L58.9892 53.202C57.4652 52.914 56.7032 52.122 56.7032 50.826C56.7032 50.25 56.8592 49.752 57.1712 49.332C57.4952 48.912 57.9392 48.588 58.5032 48.36C59.0672 48.132 59.7152 48.018 60.4472 48.018C61.0712 48.018 61.6712 48.108 62.2472 48.288C62.8232 48.456 63.3152 48.714 63.7232 49.062L63.1112 50.538C62.7632 50.25 62.3432 50.022 61.8512 49.854C61.3712 49.686 60.9092 49.602 60.4652 49.602C59.8772 49.602 59.4392 49.704 59.1512 49.908C58.8752 50.112 58.7372 50.382 58.7372 50.718C58.7372 51.246 59.0792 51.57 59.7632 51.69L61.5632 52.032C62.3432 52.176 62.9312 52.44 63.3272 52.824C63.7352 53.208 63.9392 53.724 63.9392 54.372C63.9392 55.248 63.5972 55.938 62.9132 56.442C62.2292 56.934 61.3172 57.18 60.1772 57.18Z" fill="black"></path><circle cx="265" cy="65" r="63.5" fill="#FF4081" fill-opacity="0.3" stroke="#FF4081" stroke-width="3"></circle><line x1="202" y1="64" x2="328" y2="64" stroke="#FF4081" stroke-width="2"></line><circle cx="264.5" cy="64.5" r="3.75" stroke="#FF4081" stroke-width="1.5"></circle><path d="M231.851 57.18C231.083 57.18 230.405 56.994 229.817 56.622C229.241 56.25 228.791 55.722 228.467 55.038C228.143 54.342 227.981 53.526 227.981 52.59C227.981 51.642 228.143 50.832 228.467 50.16C228.791 49.476 229.241 48.948 229.817 48.576C230.405 48.204 231.083 48.018 231.851 48.018C232.475 48.018 233.039 48.156 233.543 48.432C234.047 48.708 234.425 49.074 234.677 49.53V44.31H236.927V57H234.731V55.542C234.491 56.046 234.113 56.448 233.597 56.748C233.081 57.036 232.499 57.18 231.851 57.18ZM232.481 55.47C233.153 55.47 233.693 55.23 234.101 54.75C234.509 54.258 234.713 53.538 234.713 52.59C234.713 51.63 234.509 50.916 234.101 50.448C233.693 49.968 233.153 49.728 232.481 49.728C231.809 49.728 231.269 49.968 230.861 50.448C230.453 50.916 230.249 51.63 230.249 52.59C230.249 53.538 230.453 54.258 230.861 54.75C231.269 55.23 231.809 55.47 232.481 55.47ZM239.266 46.308V44.112H241.786V46.308H239.266ZM239.41 57V48.198H241.66V57H239.41ZM247.046 57.18C246.41 57.18 245.84 57.06 245.336 56.82C244.844 56.568 244.454 56.232 244.166 55.812C243.89 55.392 243.752 54.918 243.752 54.39C243.752 53.742 243.92 53.232 244.256 52.86C244.592 52.476 245.138 52.2 245.894 52.032C246.65 51.864 247.664 51.78 248.936 51.78H249.566V51.402C249.566 50.802 249.434 50.37 249.17 50.106C248.906 49.842 248.462 49.71 247.838 49.71C247.346 49.71 246.842 49.788 246.326 49.944C245.81 50.088 245.288 50.316 244.76 50.628L244.112 49.098C244.424 48.882 244.79 48.696 245.21 48.54C245.642 48.372 246.092 48.246 246.56 48.162C247.04 48.066 247.49 48.018 247.91 48.018C249.194 48.018 250.148 48.318 250.772 48.918C251.396 49.506 251.708 50.424 251.708 51.672V57H249.602V55.596C249.398 56.088 249.074 56.478 248.63 56.766C248.186 57.042 247.658 57.18 247.046 57.18ZM247.514 55.632C248.102 55.632 248.588 55.428 248.972 55.02C249.368 54.612 249.566 54.096 249.566 53.472V53.076H248.954C247.826 53.076 247.04 53.166 246.596 53.346C246.164 53.514 245.948 53.826 245.948 54.282C245.948 54.678 246.086 55.002 246.362 55.254C246.638 55.506 247.022 55.632 247.514 55.632ZM254.178 57V48.198H256.374V49.548C256.638 49.068 257.004 48.696 257.472 48.432C257.94 48.156 258.48 48.018 259.092 48.018C260.412 48.018 261.276 48.594 261.684 49.746C261.96 49.206 262.356 48.786 262.872 48.486C263.388 48.174 263.976 48.018 264.636 48.018C266.616 48.018 267.606 49.224 267.606 51.636V57H265.356V51.726C265.356 51.054 265.242 50.562 265.014 50.25C264.798 49.938 264.426 49.782 263.898 49.782C263.31 49.782 262.848 49.992 262.512 50.412C262.176 50.82 262.008 51.39 262.008 52.122V57H259.758V51.726C259.758 51.054 259.644 50.562 259.416 50.25C259.2 49.938 258.834 49.782 258.318 49.782C257.73 49.782 257.268 49.992 256.932 50.412C256.596 50.82 256.428 51.39 256.428 52.122V57H254.178ZM274.415 57.18C273.419 57.18 272.561 56.994 271.841 56.622C271.121 56.25 270.563 55.722 270.167 55.038C269.783 54.354 269.591 53.544 269.591 52.608C269.591 51.696 269.777 50.898 270.149 50.214C270.533 49.53 271.055 48.996 271.715 48.612C272.387 48.216 273.149 48.018 274.001 48.018C275.249 48.018 276.233 48.414 276.953 49.206C277.685 49.998 278.051 51.078 278.051 52.446V53.112H271.751C271.919 54.684 272.819 55.47 274.451 55.47C274.943 55.47 275.435 55.398 275.927 55.254C276.419 55.098 276.869 54.858 277.277 54.534L277.907 56.046C277.487 56.394 276.959 56.67 276.323 56.874C275.687 57.078 275.051 57.18 274.415 57.18ZM274.091 49.548C273.431 49.548 272.897 49.752 272.489 50.16C272.081 50.568 271.835 51.12 271.751 51.816H276.179C276.131 51.084 275.927 50.526 275.567 50.142C275.219 49.746 274.727 49.548 274.091 49.548ZM283.98 57.18C281.652 57.18 280.488 56.028 280.488 53.724V49.89H278.796V48.198H280.488V45.57H282.738V48.198H285.402V49.89H282.738V53.598C282.738 54.174 282.864 54.606 283.116 54.894C283.368 55.182 283.776 55.326 284.34 55.326C284.508 55.326 284.682 55.308 284.862 55.272C285.042 55.224 285.228 55.176 285.42 55.128L285.762 56.784C285.546 56.904 285.27 57 284.934 57.072C284.61 57.144 284.292 57.18 283.98 57.18ZM291.256 57.18C290.26 57.18 289.402 56.994 288.682 56.622C287.962 56.25 287.404 55.722 287.008 55.038C286.624 54.354 286.432 53.544 286.432 52.608C286.432 51.696 286.618 50.898 286.99 50.214C287.374 49.53 287.896 48.996 288.556 48.612C289.228 48.216 289.99 48.018 290.842 48.018C292.09 48.018 293.074 48.414 293.794 49.206C294.526 49.998 294.892 51.078 294.892 52.446V53.112H288.592C288.76 54.684 289.66 55.47 291.292 55.47C291.784 55.47 292.276 55.398 292.768 55.254C293.26 55.098 293.71 54.858 294.118 54.534L294.748 56.046C294.328 56.394 293.8 56.67 293.164 56.874C292.528 57.078 291.892 57.18 291.256 57.18ZM290.932 49.548C290.272 49.548 289.738 49.752 289.33 50.16C288.922 50.568 288.676 51.12 288.592 51.816H293.02C292.972 51.084 292.768 50.526 292.408 50.142C292.06 49.746 291.568 49.548 290.932 49.548ZM296.824 57V48.198H299.02V49.746C299.452 48.702 300.376 48.126 301.792 48.018L302.476 47.964L302.62 49.872L301.324 49.998C299.848 50.142 299.11 50.898 299.11 52.266V57H296.824Z" fill="black"></path></svg> 