<?xml version="1.0" encoding="UTF-8"?> <svg xmlns="http://www.w3.org/2000/svg" width="198" height="150" viewBox="0 0 198 150" fill="none"><circle cx="75" cy="75" r="74" fill="#FF4081" fill-opacity="0.3" stroke="#FF4081" stroke-width="2"></circle><path d="M148.401 80C147.496 92.0014 143.716 103.609 137.38 113.842C131.045 124.075 122.34 132.633 112 138.793" stroke="#FB1313" stroke-width="5"></path><path fill-rule="evenodd" clip-rule="evenodd" d="M155.005 111.98C155.025 111.925 155.124 111.658 155.226 111.392C155.606 110.396 156.29 109.621 157.097 108.967C157.987 108.246 159.02 108.084 160.124 108.39C160.791 108.574 161.233 108.999 161.498 109.632C161.666 110.036 161.719 110.459 161.707 110.888C161.692 111.423 161.635 111.959 161.452 112.466C161.03 113.639 160.605 114.809 159.903 115.858C158.838 117.447 157.494 118.757 155.972 119.896C155.863 119.978 155.677 119.953 155.588 119.842C154.956 119.055 154.496 118.177 154.232 117.201C154.204 117.098 154.192 116.99 154.186 116.884C154.106 115.268 154.158 113.673 155.005 111.98ZM154.365 111.636C153.462 113.421 153.371 115.157 153.477 116.923C153.516 117.579 153.748 118.178 154.061 118.745C154.336 119.245 154.637 119.731 154.926 120.224C154.999 120.349 154.964 120.521 154.84 120.601C154.63 120.736 154.422 120.877 154.2 120.991C153.178 121.513 152.11 121.916 150.98 122.133C149.345 122.447 147.712 122.404 146.088 122.044C145.652 121.947 145.545 121.816 145.545 121.389C145.545 120.782 145.558 120.175 145.566 119.569C145.567 119.426 145.576 119.283 145.566 119.141C145.547 118.884 145.249 118.73 144.998 118.84C144.933 118.868 144.867 118.897 144.805 118.932C143.77 119.499 142.774 120.129 141.808 120.807C141.547 120.99 141.306 121.208 141.079 121.434C140.718 121.794 140.729 122.175 141.089 122.564C141.185 122.669 141.289 122.768 141.396 122.863C142.432 123.793 143.47 124.721 144.508 125.649C144.561 125.696 144.622 125.735 144.68 125.777C144.948 125.967 145.294 125.862 145.363 125.556C145.411 125.349 145.438 125.135 145.448 124.923C145.47 124.423 145.469 123.924 145.491 123.424C145.514 122.902 145.664 122.771 146.15 122.885C147.026 123.09 147.913 123.127 148.808 123.149C150.187 123.184 151.513 122.904 152.803 122.471C153.509 122.234 154.169 121.859 154.847 121.539C155.008 121.463 155.159 121.365 155.31 121.27C155.55 121.12 155.78 121.124 156.004 121.299C156.116 121.387 156.227 121.477 156.333 121.573C157.375 122.528 158.612 123.152 159.895 123.713C161.946 124.609 164.105 125.063 166.309 125.344C166.586 125.38 166.875 125.33 167.158 125.306C167.288 125.295 167.421 125.095 167.369 124.986C167.326 124.896 167.253 124.802 167.168 124.755C167.08 124.707 166.963 124.704 166.857 124.695C164.269 124.486 161.786 123.879 159.439 122.751C158.503 122.301 157.6 121.8 156.84 121.076C156.763 121.002 156.684 120.93 156.609 120.854C156.491 120.735 156.477 120.581 156.588 120.478C156.85 120.236 157.109 119.99 157.387 119.767C158.708 118.705 159.83 117.459 160.698 116.008C161.45 114.75 162.096 113.436 162.352 111.967C162.439 111.472 162.479 110.976 162.454 110.475C162.427 109.93 162.278 109.419 162.003 108.947C161.687 108.405 161.244 108.003 160.649 107.786C159.191 107.253 157.815 107.425 156.612 108.407C155.724 109.131 154.976 110.001 154.564 111.106C154.477 111.34 154.388 111.574 154.365 111.636Z" fill="#FB1313"></path><path d="M168.472 133L174.214 120.31H176.104L181.846 133H179.506L178.246 130.066H172.054L170.812 133H168.472ZM175.132 122.812L172.846 128.23H177.454L175.168 122.812H175.132ZM183.168 133V124.198H185.364V125.746C185.796 124.702 186.72 124.126 188.136 124.018L188.82 123.964L188.964 125.872L187.668 125.998C186.192 126.142 185.454 126.898 185.454 128.266V133H183.168ZM194.294 133.18C193.37 133.18 192.566 132.994 191.882 132.622C191.198 132.238 190.67 131.698 190.298 131.002C189.926 130.306 189.74 129.49 189.74 128.554C189.74 127.618 189.926 126.814 190.298 126.142C190.67 125.458 191.198 124.936 191.882 124.576C192.566 124.204 193.37 124.018 194.294 124.018C194.858 124.018 195.416 124.108 195.968 124.288C196.52 124.468 196.976 124.72 197.336 125.044L196.67 126.61C196.358 126.334 196.004 126.124 195.608 125.98C195.224 125.836 194.852 125.764 194.492 125.764C193.712 125.764 193.106 126.01 192.674 126.502C192.254 126.982 192.044 127.672 192.044 128.572C192.044 129.46 192.254 130.162 192.674 130.678C193.106 131.182 193.712 131.434 194.492 131.434C194.84 131.434 195.212 131.362 195.608 131.218C196.004 131.074 196.358 130.858 196.67 130.57L197.336 132.154C196.976 132.466 196.514 132.718 195.95 132.91C195.398 133.09 194.846 133.18 194.294 133.18Z" fill="#FB1313"></path></svg> 