<?xml version="1.0" encoding="UTF-8"?> <svg xmlns="http://www.w3.org/2000/svg" width="150" height="150" viewBox="0 0 150 150" fill="none"><circle cx="75" cy="75" r="73.5" fill="#FF4081" fill-opacity="0.3" stroke="#FF4081" stroke-width="3"></circle><circle cx="75" cy="75" r="4" fill="#FF4081"></circle><path d="M53.6943 49.18C52.3743 49.18 51.2403 48.916 50.2923 48.388C49.3563 47.848 48.6363 47.092 48.1323 46.12C47.6283 45.136 47.3763 43.978 47.3763 42.646C47.3763 41.314 47.6283 40.162 48.1323 39.19C48.6363 38.218 49.3563 37.468 50.2923 36.94C51.2403 36.4 52.3743 36.13 53.6943 36.13C54.5463 36.13 55.3503 36.262 56.1063 36.526C56.8743 36.79 57.5043 37.168 57.9963 37.66L57.2403 39.496C56.7003 39.04 56.1483 38.71 55.5843 38.506C55.0203 38.29 54.4143 38.182 53.7663 38.182C52.4823 38.182 51.5043 38.572 50.8323 39.352C50.1603 40.12 49.8243 41.218 49.8243 42.646C49.8243 44.074 50.1603 45.178 50.8323 45.958C51.5043 46.738 52.4823 47.128 53.7663 47.128C54.4143 47.128 55.0203 47.026 55.5843 46.822C56.1483 46.606 56.7003 46.27 57.2403 45.814L57.9963 47.65C57.5043 48.13 56.8743 48.508 56.1063 48.784C55.3503 49.048 54.5463 49.18 53.6943 49.18ZM63.6463 49.18C62.6503 49.18 61.7923 48.994 61.0723 48.622C60.3523 48.25 59.7943 47.722 59.3983 47.038C59.0143 46.354 58.8223 45.544 58.8223 44.608C58.8223 43.696 59.0083 42.898 59.3803 42.214C59.7643 41.53 60.2863 40.996 60.9463 40.612C61.6183 40.216 62.3803 40.018 63.2323 40.018C64.4803 40.018 65.4643 40.414 66.1843 41.206C66.9163 41.998 67.2823 43.078 67.2823 44.446V45.112H60.9823C61.1503 46.684 62.0503 47.47 63.6823 47.47C64.1743 47.47 64.6663 47.398 65.1583 47.254C65.6503 47.098 66.1003 46.858 66.5083 46.534L67.1383 48.046C66.7183 48.394 66.1903 48.67 65.5543 48.874C64.9183 49.078 64.2823 49.18 63.6463 49.18ZM63.3223 41.548C62.6623 41.548 62.1283 41.752 61.7203 42.16C61.3123 42.568 61.0663 43.12 60.9823 43.816H65.4103C65.3623 43.084 65.1583 42.526 64.7983 42.142C64.4503 41.746 63.9583 41.548 63.3223 41.548ZM69.2141 49V40.198H71.4101V41.566C71.7101 41.062 72.1121 40.678 72.6161 40.414C73.1321 40.15 73.7081 40.018 74.3441 40.018C76.4201 40.018 77.4581 41.224 77.4581 43.636V49H75.2081V43.744C75.2081 43.06 75.0761 42.562 74.8121 42.25C74.5601 41.938 74.1641 41.782 73.6241 41.782C72.9641 41.782 72.4361 41.992 72.0401 42.412C71.6561 42.82 71.4641 43.366 71.4641 44.05V49H69.2141ZM83.9254 49.18C81.5974 49.18 80.4334 48.028 80.4334 45.724V41.89H78.7414V40.198H80.4334V37.57H82.6834V40.198H85.3474V41.89H82.6834V45.598C82.6834 46.174 82.8094 46.606 83.0614 46.894C83.3134 47.182 83.7214 47.326 84.2854 47.326C84.4534 47.326 84.6274 47.308 84.8074 47.272C84.9874 47.224 85.1734 47.176 85.3654 47.128L85.7074 48.784C85.4914 48.904 85.2154 49 84.8794 49.072C84.5554 49.144 84.2374 49.18 83.9254 49.18ZM86.9516 49V40.198H89.1476V41.746C89.5796 40.702 90.5036 40.126 91.9196 40.018L92.6036 39.964L92.7476 41.872L91.4516 41.998C89.9756 42.142 89.2376 42.898 89.2376 44.266V49H86.9516ZM98.3478 49.18C97.3518 49.18 96.4938 48.994 95.7738 48.622C95.0538 48.25 94.4958 47.722 94.0998 47.038C93.7158 46.354 93.5238 45.544 93.5238 44.608C93.5238 43.696 93.7098 42.898 94.0818 42.214C94.4658 41.53 94.9878 40.996 95.6478 40.612C96.3198 40.216 97.0818 40.018 97.9338 40.018C99.1818 40.018 100.166 40.414 100.886 41.206C101.618 41.998 101.984 43.078 101.984 44.446V45.112H95.6838C95.8518 46.684 96.7518 47.47 98.3838 47.47C98.8758 47.47 99.3678 47.398 99.8598 47.254C100.352 47.098 100.802 46.858 101.21 46.534L101.84 48.046C101.42 48.394 100.892 48.67 100.256 48.874C99.6198 49.078 98.9838 49.18 98.3478 49.18ZM98.0238 41.548C97.3638 41.548 96.8298 41.752 96.4218 42.16C96.0138 42.568 95.7678 43.12 95.6838 43.816H100.112C100.064 43.084 99.8598 42.526 99.4998 42.142C99.1518 41.746 98.6598 41.548 98.0238 41.548Z" fill="black"></path><circle cx="75" cy="91" r="5.25" stroke="#FF4081" stroke-width="1.5"></circle></svg> 